<?xml version="1.0" standalone="no"?>
<!DOCTYPE svg PUBLIC "-//W3C//DTD SVG 20010904//EN"
 "http://www.w3.org/TR/2001/REC-SVG-20010904/DTD/svg10.dtd">
<svg version="1.0" xmlns="http://www.w3.org/2000/svg"
 width="280.000000pt" height="280.000000pt" viewBox="0 0 280.000000 280.000000"
 preserveAspectRatio="xMidYMid meet">
<metadata>
Created by potrace 1.11, written by Peter Selinger 2001-2013
</metadata>
<g transform="translate(0.000000,280.000000) scale(0.100000,-0.100000)"
fill="#000000" stroke="none">
<path d="M0 1400 l0 -1400 1400 0 1400 0 0 1400 0 1400 -1400 0 -1400 0 0
-1400z m2016 389 c198 -95 241 -448 78 -628 -93 -103 -219 -113 -321 -26 -87
74 -127 185 -121 334 3 81 8 106 34 161 38 81 82 132 137 159 56 28 136 28
193 0z m-950 -320 c57 -32 69 -53 59 -99 -15 -69 -137 -125 -295 -137 -158
-11 -259 41 -290 151 -23 84 0 199 56 273 l24 32 197 -95 c108 -52 220 -108
249 -125z"/>
</g>
</svg>
